# xmcd CD database file generated by OrangeCD 5.2
#
# Track frame offsets:
#	150
#	8031
#	47848
#	72043
#	111090
#	121595
#	152455
#	183617
#
# Disc length: 3250 seconds
#
# Revision: 0
# Processed by: cddbd v1.5.1PL0 Copyright (c) Steve Scherf et al.
# Submitted via: OrangeCD 5.2
#
DISCID=5a0cb008
DTITLE=Kelly Joe Phelps - Live @ the Strawberry Fest
DYEAR=1997
DGENRE=Blues
TTITLE0=Intro
TTITLE1=Bid You Goodnight > Valley to Pray
TTITLE2=Chatter and Tuning
TTITLE3=I left my home for no reason
TTITLE4=Chatter
TTITLE5=Without the Light
TTITLE6=You are my Sunshine
TTITLE7=When the Roll is Called up Yonder > I Shall Not Be Moved
EXTD=
EXTT0=
EXTT1=
EXTT2=
EXTT3=
EXTT4=
EXTT5=
EXTT6=
EXTT7=
PLAYORDER=
